<svg xmlns="http://www.w3.org/2000/svg" width="1em" height="1em" viewBox="0 0 48 48">
    <g fill="#a17249" fill-rule="evenodd" clip-rule="evenodd">
        <path d="M34.459 10.048a1 1 0 0 1 .973.207l8.235 7.379a1 1 0 0 1 .31.958l-2.353 10.783a1 1 0 0 1-.718.753l-10.588 2.838a1 1 0 0 1-.961-.254l-4.56-4.5a1 1 0 1 1 1.406-1.424l4.15 4.098l9.447-2.532l2.099-9.62l-7.374-6.606l-9.556 3.073l-1.018 3.11a1 1 0 1 1-1.901-.622l1.176-3.595a1 1 0 0 1 .645-.64z" />
        <path d="M32.722 20.025a1 1 0 0 1 .753 1.197l-2.5 11a1 1 0 0 1-1.95-.444l2.5-11a1 1 0 0 1 1.197-.753" />
        <path d="M23.738 13.853a1 1 0 0 1 1.409-.116l7.265 6.16l6.825-1.862a1 1 0 1 1 .526 1.93l-7.333 2a1 1 0 0 1-.91-.202l-7.666-6.5a1 1 0 0 1-.116-1.41m-12.996 1.424a1 1 0 0 1 .965-.239l8.27 2.361a1 1 0 0 1 .695.714l2.297 8.972a1 1 0 0 1-.308.999L16.23 33.75a1 1 0 0 1-.936.212L7.023 31.6a1 1 0 0 1-.69-.7l-2.298-8.5a1 1 0 0 1 .275-.984zm.967 1.842L6.12 22.452l1.994 7.38l7.202 2.056l5.563-4.9l-2.003-7.823z" />
        <path d="M17.707 20.293a1 1 0 0 1 0 1.414l-4 4a1 1 0 0 1-.974.256l-8-2.222a1 1 0 1 1 .535-1.927l7.438 2.066l3.587-3.587a1 1 0 0 1 1.414 0" />
        <path d="M12.758 24.03a1 1 0 0 1 1.212.727l2 8a1 1 0 0 1-1.94.486l-2-8a1 1 0 0 1 .728-1.213" />
    </g>
</svg>
