<?xml version="1.0" encoding="iso-8859-1"?>
<!-- Uploaded to: SVG Repo, www.svgrepo.com, Generator: SVG Repo Mixer Tools -->
<!DOCTYPE svg PUBLIC "-//W3C//DTD SVG 1.1//EN" "http://www.w3.org/Graphics/SVG/1.1/DTD/svg11.dtd">
<svg fill="#000000" height="800px" width="800px" version="1.1" id="Capa_1" xmlns="http://www.w3.org/2000/svg" xmlns:xlink="http://www.w3.org/1999/xlink" 
	 viewBox="0 0 477.666 477.666" xml:space="preserve">
<g>
	<path d="M470.25,7.41c-4.913-4.913-11.965-7.406-20.976-7.406c-59.281,0-245.431,114.868-317.575,187.019
		c-17.694,17.687-32.213,35.381-43.175,52.586c-2.182,3.433-2.723,7.664-1.464,11.531c1.261,3.867,4.187,6.971,7.974,8.461
		l11.823,4.657l-31.185,12.275c-4.08,1.595-7.131,5.064-8.214,9.304c-6.083,23.813-3.849,46.439,6.067,66.918l20.764-20.762
		c-3.246-10.279-3.913-21.154-1.864-32.772l56.631-22.289c0.258-0.096,0.452-0.292,0.692-0.398l6.492-6.494
		c0.861-1.791,1.455-3.716,1.455-5.782c0-5.596-3.424-10.626-8.639-12.675l-28.062-11.042c8.39-11.236,18.42-22.705,29.969-34.253
		c70.271-70.272,251.48-179.037,298.31-179.037c0.381,0,0.728,0.009,1.03,0.027c0.194,4.843-1.233,20.044-18.377,57.757
		l-50.884,38.892c-3.371,2.572-5.348,6.572-5.348,10.821c0,4.24,1.976,8.248,5.348,10.821l13.676,10.457
		c-39.397,67.895-88.152,135.479-123.345,170.672c-48.266,48.266-90.431,67.575-125.599,56.551l-20.842,20.842
		c12.701,6.156,26.155,9.553,40.436,9.553c38.209,0,80.365-22.776,125.269-67.682c39.141-39.141,91.621-112.463,133.697-186.797
		c3.344-5.923,1.818-13.411-3.584-17.534l-9.002-6.882l39.424-30.129c1.757-1.339,3.166-3.095,4.089-5.11
		C485.098,34.958,479.581,16.723,470.25,7.41z"/>
	<path d="M237.023,240.629C177.528,278.164,45.347,396.747,0,477.662C76.248,434.921,196.704,304.533,237.023,240.629z"/>
</g>
</svg>